<mxfile host="" modified="2021-01-01T06:50:22.454Z" agent="5.0 (Macintosh; Intel Mac OS X 10_15_6) AppleWebKit/537.36 (KHTML, like Gecko) Chrome/81.0.4044.113 Safari/537.36" etag="3FNcvhsY1Htmp4e3mmk-" version="13.7.9" type="embed"><diagram id="m3nbJ1tALbeG17DyZsbN" name="Page-1"><mxGraphModel dx="892" dy="487" grid="1" gridSize="10" guides="1" tooltips="1" connect="1" arrows="1" fold="1" page="1" pageScale="1" pageWidth="850" pageHeight="1100" math="0" shadow="0"><root><mxCell id="0"/><mxCell id="1" parent="0"/><mxCell id="4" style="edgeStyle=orthogonalEdgeStyle;rounded=0;orthogonalLoop=1;jettySize=auto;html=1;" parent="1" source="2" target="3" edge="1"><mxGeometry relative="1" as="geometry"/></mxCell><mxCell id="25" value=":9000" style="edgeLabel;html=1;align=center;verticalAlign=middle;resizable=0;points=[];" parent="4" vertex="1" connectable="0"><mxGeometry x="-0.0286" y="3" relative="1" as="geometry"><mxPoint as="offset"/></mxGeometry></mxCell><mxCell id="26" style="rounded=0;orthogonalLoop=1;jettySize=auto;html=1;dashed=1;" edge="1" parent="1" source="2" target="9"><mxGeometry relative="1" as="geometry"/></mxCell><mxCell id="2" value="Nginx" style="rounded=0;whiteSpace=wrap;html=1;" parent="1" vertex="1"><mxGeometry x="60" y="240" width="120" height="40" as="geometry"/></mxCell><mxCell id="6" style="edgeStyle=orthogonalEdgeStyle;rounded=0;orthogonalLoop=1;jettySize=auto;html=1;" parent="1" source="3" target="5" edge="1"><mxGeometry relative="1" as="geometry"/></mxCell><mxCell id="8" style="edgeStyle=orthogonalEdgeStyle;rounded=0;orthogonalLoop=1;jettySize=auto;html=1;entryX=0.5;entryY=0;entryDx=0;entryDy=0;entryPerimeter=0;" parent="1" source="3" target="7" edge="1"><mxGeometry relative="1" as="geometry"/></mxCell><mxCell id="17" style="rounded=0;orthogonalLoop=1;jettySize=auto;html=1;entryX=0.5;entryY=1;entryDx=0;entryDy=0;dashed=1;" parent="1" source="3" target="9" edge="1"><mxGeometry relative="1" as="geometry"/></mxCell><mxCell id="3" value="php fpm" style="rounded=0;whiteSpace=wrap;html=1;" parent="1" vertex="1"><mxGeometry x="250" y="240" width="120" height="40" as="geometry"/></mxCell><mxCell id="18" style="rounded=0;orthogonalLoop=1;jettySize=auto;html=1;entryX=0.575;entryY=1.025;entryDx=0;entryDy=0;entryPerimeter=0;dashed=1;" parent="1" source="5" target="9" edge="1"><mxGeometry relative="1" as="geometry"/></mxCell><mxCell id="5" value="MongoDB" style="shape=cylinder3;whiteSpace=wrap;html=1;boundedLbl=1;backgroundOutline=1;size=15;" parent="1" vertex="1"><mxGeometry x="280" y="360" width="60" height="80" as="geometry"/></mxCell><mxCell id="19" style="edgeStyle=none;rounded=0;orthogonalLoop=1;jettySize=auto;html=1;entryX=0.683;entryY=1.025;entryDx=0;entryDy=0;entryPerimeter=0;dashed=1;" parent="1" source="7" target="9" edge="1"><mxGeometry relative="1" as="geometry"/></mxCell><mxCell id="7" value="MySQL" style="shape=cylinder3;whiteSpace=wrap;html=1;boundedLbl=1;backgroundOutline=1;size=15;" parent="1" vertex="1"><mxGeometry x="450" y="360" width="60" height="80" as="geometry"/></mxCell><mxCell id="15" style="rounded=0;orthogonalLoop=1;jettySize=auto;html=1;entryX=0.4;entryY=1.038;entryDx=0;entryDy=0;entryPerimeter=0;" parent="1" source="9" target="14" edge="1"><mxGeometry relative="1" as="geometry"/></mxCell><mxCell id="9" value="Telegraf" style="rounded=0;whiteSpace=wrap;html=1;" parent="1" vertex="1"><mxGeometry x="480" y="180" width="120" height="40" as="geometry"/></mxCell><mxCell id="12" value="Grafana" style="rounded=0;whiteSpace=wrap;html=1;" parent="1" vertex="1"><mxGeometry x="680" y="60" width="120" height="40" as="geometry"/></mxCell><mxCell id="16" style="edgeStyle=orthogonalEdgeStyle;rounded=0;orthogonalLoop=1;jettySize=auto;html=1;" parent="1" source="14" target="12" edge="1"><mxGeometry relative="1" as="geometry"/></mxCell><mxCell id="14" value="InfluxDB" style="shape=cylinder3;whiteSpace=wrap;html=1;boundedLbl=1;backgroundOutline=1;size=15;" parent="1" vertex="1"><mxGeometry x="516" y="40" width="60" height="80" as="geometry"/></mxCell><mxCell id="23" style="rounded=0;orthogonalLoop=1;jettySize=auto;html=1;entryX=0.5;entryY=0;entryDx=0;entryDy=0;" parent="1" source="22" target="2" edge="1"><mxGeometry relative="1" as="geometry"/></mxCell><mxCell id="24" value=":80" style="edgeLabel;html=1;align=center;verticalAlign=middle;resizable=0;points=[];" parent="23" vertex="1" connectable="0"><mxGeometry x="-0.1" y="3" relative="1" as="geometry"><mxPoint as="offset"/></mxGeometry></mxCell><mxCell id="22" value="" style="ellipse;whiteSpace=wrap;html=1;aspect=fixed;" parent="1" vertex="1"><mxGeometry x="95" y="110" width="50" height="50" as="geometry"/></mxCell></root></mxGraphModel></diagram></mxfile>